<?xml version="1.0" encoding="UTF-8" standalone="no"?>
<!-- Created with Inkscape (http://www.inkscape.org/) -->

<svg
   xmlns:dc="http://purl.org/dc/elements/1.1/"
   xmlns:cc="http://creativecommons.org/ns#"
   xmlns:rdf="http://www.w3.org/1999/02/22-rdf-syntax-ns#"
   xmlns:svg="http://www.w3.org/2000/svg"
   xmlns="http://www.w3.org/2000/svg"
   xmlns:sodipodi="http://sodipodi.sourceforge.net/DTD/sodipodi-0.dtd"
   xmlns:inkscape="http://www.inkscape.org/namespaces/inkscape"
   version="1.1"
   id="svg2"
   width="700"
   height="676"
   viewBox="0 0 700 676"
   sodipodi:docname="logo-delivrac-gray.svg"
   inkscape:version="0.92.5 (2060ec1f9f, 2020-04-08)">
  <metadata
     id="metadata8">
    <rdf:RDF>
      <cc:Work
         rdf:about="">
        <dc:format>image/svg+xml</dc:format>
        <dc:type
           rdf:resource="http://purl.org/dc/dcmitype/StillImage" />
        <dc:title></dc:title>
      </cc:Work>
    </rdf:RDF>
  </metadata>
  <defs
     id="defs6" />
  <sodipodi:namedview
     pagecolor="#ffffff"
     bordercolor="#666666"
     borderopacity="1"
     objecttolerance="10"
     gridtolerance="10"
     guidetolerance="10"
     inkscape:pageopacity="0"
     inkscape:pageshadow="2"
     inkscape:window-width="1848"
     inkscape:window-height="1043"
     id="namedview4"
     showgrid="false"
     inkscape:zoom="0.34911243"
     inkscape:cx="347.13559"
     inkscape:cy="338"
     inkscape:window-x="72"
     inkscape:window-y="0"
     inkscape:window-maximized="1"
     inkscape:current-layer="svg2" />
  <path
     style="fill:#6c757d"
     d="m 346.22881,625.06871 c -2.2,-0.98451 -8.4469,-4.53315 -13.88199,-7.88587 -14.99084,-9.24731 -18.09739,-9.54105 -39.61801,-3.74602 -18.36405,4.94503 -22.41023,3.5602 -37.53235,-12.84562 -12.79387,-13.87993 -14.76687,-14.75948 -34.96765,-15.58827 -10.83697,-0.44461 -17.12941,-1.14704 -19.5,-2.17681 -5.43407,-2.36053 -10.30953,-8.60447 -16.3755,-20.97191 -8.32377,-16.97068 -10.80951,-19.05097 -29.6245,-24.79245 -5.85798,-1.78759 -12.81421,-4.72 -15.73462,-6.63294 L 133.75958,527 H 87.244193 40.728813 V 489.5 452 h 23.38062 23.38062 l 1.36256,-11.75 c 0.74941,-6.4625 1.3636,-14.675 1.36488,-18.25 0.003,-7.81624 -2.04561,-11.79703 -12.31896,-23.94017 -13.22813,-15.63569 -14.10614,-21.65429 -5.81588,-39.86675 8.31224,-18.26072 8.27644,-21.47644 -0.46208,-41.51674 -7.8472,-17.99622 -6.968,-23.0486 6.85634,-39.40028 12.43453,-14.70779 13.0909,-16.95819 10.78599,-36.97994 -2.50703,-21.77744 -0.7539,-25.60699 17.167077,-37.49995 15.75087,-10.45279 18.73241,-14.90407 21.2976,-31.79617 1.42117,-9.35855 3.67599,-17.57398 5.65042,-20.58735 2.61558,-3.99188 10.44263,-8.11041 22.54483,-11.86291 17.71115,-5.49164 19.79195,-7.23704 28.07515,-23.54974 11.06823,-21.797449 12.79829,-22.939809 36.30848,-23.974419 20.54196,-0.90399 21.50855,-1.34138 35.14913,-15.9055 15.39003,-16.43201 18.96611,-17.52251 39.27322,-11.97606 6.86287,1.87444 14.12099,3.18263 18,3.24428 7.07011,0.11236 8.98895,-0.7087 25.02345,-10.70742 9.93581,-6.19573 16.81113,-7.72871 24.2069,-5.3974 2.92659,0.92252 8.72917,3.89239 12.89464,6.5997 17.24005,11.20505 19.9669,11.67154 39.10916,6.69056 7.55378,-1.96556 15.55573,-3.57374 17.78211,-3.57374 7.74621,0 13.72437,3.96174 24.95337,16.53665 6.9985,7.83734 11.64317,11.57261 16.03037,12.89169 1.375,0.41341 9.54523,1.10055 18.15606,1.52698 23.35025,1.15634 24.94908,2.22975 35.81412,24.044679 8.03324,16.12919 10.67424,18.31033 29.02762,23.97315 13.06117,4.02995 17.20982,6.12142 20.37566,10.27205 3.44492,4.51653 4.32454,7.19786 6.60548,20.13535 3.54432,20.10335 5.15798,22.6582 20.69018,32.75806 5.04302,3.27923 10.97429,7.92062 13.18061,10.31419 6.2603,6.79163 6.81427,9.98811 4.85788,28.03101 -2.17185,20.02999 -1.79522,21.38666 9.86689,35.541 10.81048,13.1207 12.4255,16.21299 12.4255,23.79114 0,4.91382 -0.93258,8.10373 -5.6,19.15495 -8.0416,19.04038 -8.01542,19.43558 3.01595,45.5291 3.2026,7.57539 3.44085,15.90021 0.61366,21.44196 -1.08371,2.12425 -5.12676,7.52683 -8.98454,12.00572 -12.80615,14.86794 -14.09731,18.92807 -11.5998,36.47639 0.8551,6.00824 1.55473,12.42074 1.55473,14.25 V 452 h 22.5 22.5 v 37.5 37.5 h -45.50866 -45.50866 l -4.18561,3.03205 c -2.4469,1.77252 -8.98592,4.53145 -15.74135,6.64155 -19.9607,6.23486 -22.23688,8.13794 -30.98215,25.90359 -9.83029,19.96984 -12.01312,21.35776 -35.16038,22.35614 -14.15013,0.61032 -16.09502,0.92093 -21.1003,3.36979 -3.53814,1.73105 -7.32048,4.77503 -10.55705,8.49621 -17.48691,20.10512 -21.89023,21.90346 -40.8838,16.69722 -21.36375,-5.85593 -24.79763,-5.52195 -40.35701,3.92516 -5.78327,3.5114 -12.25749,7.103 -14.38715,7.98133 -5.00342,2.06353 -12.07816,1.92544 -17.12788,-0.33433 z m 50.15063,-47.08727 c 34.29288,-5.84186 65.86457,-18.51584 94.56682,-37.96244 7.3054,-4.94961 14.40755,-9.89373 15.78255,-10.98691 l 2.5,-1.98762 -16.32553,-0.0222 -16.32552,-0.0222 -6.67448,3.88068 c -71.6574,41.6631 -158.86473,41.48039 -228.30528,-0.47832 L 235.96719,527 l -16.36919,0.036 -16.36919,0.036 3,2.53198 c 5.48824,4.63205 28.97316,19.89936 37.04333,24.0815 24.8104,12.8573 49.47901,20.72018 80.45667,25.64479 1.375,0.21859 15.61778,0.45872 31.65063,0.53362 25.08285,0.11718 30.80412,-0.1455 41,-1.88238 z m -8.46849,-30.39743 c 19.02044,-2.97568 39.37292,-9.08623 55.2052,-16.57459 l 8.11266,-3.83713 -95,-10e-4 -95,-10e-4 8,3.86522 c 16.44506,7.94547 40.55366,14.74511 61.99794,17.48603 13.49597,1.725 42.75959,1.24106 56.6842,-0.9374 z M 278.43826,500 c 0.78681,-1.55981 1.26107,-6.63684 1.26107,-13.5 0,-15.10476 -0.48597,-15.91719 -9.74632,-16.29381 l -7.2242,-0.29381 V 486.5 503.08762 l 7.2242,-0.29381 c 6.56151,-0.26686 7.33987,-0.52314 8.48525,-2.79381 z m -9.70945,-13.5 c 0,-10.46116 0.0376,-10.63376 2.25,-10.31955 2.16203,0.30706 2.25,0.71053 2.25,10.31955 0,9.60902 -0.088,10.01249 -2.25,10.31955 -2.21237,0.31421 -2.25,0.14161 -2.25,-10.31955 z m 35,13.5 c 0,-2.9697 -0.0556,-3 -5.5,-3 h -5.5 v -3.9425 c 0,-3.92334 0.0207,-3.944 4.25,-4.25 3.78467,-0.27383 4.25,-0.58123 4.25,-2.8075 0,-2.22627 -0.46533,-2.53367 -4.25,-2.8075 -4.1038,-0.29692 -4.25,-0.42412 -4.25,-3.69774 0,-3.38477 0.008,-3.39073 5.25,-3.6925 4.89669,-0.28192 5.27129,-0.48733 5.56642,-3.05226 l 0.31642,-2.75 h -8.56642 -8.56642 v 16.5 16.5 h 8.5 8.5 z m 23.81642,0.25 c -0.29513,-2.56493 -0.66973,-2.77034 -5.56642,-3.05226 l -5.25,-0.30226 V 483.44774 470 h -3 -3 v 15.83333 c 0,8.70834 0.3,16.13334 0.66667,16.5 C 311.76214,502.7 315.61703,503 319.9619,503 h 7.89975 z M 340.72881,486.5 V 470 h -3 -3 v 15.83333 c 0,8.70834 0.3,16.13334 0.66667,16.5 0.36666,0.36667 1.71666,0.66667 3,0.66667 h 2.33333 z m 23.62646,1.5 c 4.11332,-18.22101 4.11321,-18.21795 0.62354,-17.81642 -2.62968,0.30258 -2.84235,0.75395 -4.86063,10.31642 -1.58117,7.49148 -2.27177,9.37287 -2.75303,7.5 -0.71951,-2.80004 -3.63634,-16.88982 -3.63634,-17.56538 0,-0.23904 -1.35,-0.43462 -3,-0.43462 -1.65,0 -3,0.14999 -3,0.33332 0,0.18333 1.575,7.36377 3.5,15.95653 1.925,8.59277 3.5,15.89629 3.5,16.23004 0,0.33376 1.42946,0.46582 3.17658,0.29347 L 361.08196,502.5 Z m 16.37354,9.5 c 0,-4.09948 0.3637,-5.5 1.42828,-5.5 0.9154,0 1.87028,1.97503 2.65913,5.5 1.13846,5.08714 1.4441,5.5 4.07172,5.5 3.19601,0 3.28646,-0.34476 1.72129,-6.56063 -0.89597,-3.5582 -0.84604,-4.77587 0.25,-6.09651 1.87442,-2.25855 1.87225,-16.42979 -0.003,-18.68917 -1.0497,-1.2648 -3.10739,-1.65369 -8.75,-1.65369 h -7.37742 v 16.5 16.5 h 3 c 2.9697,0 3,-0.0556 3,-5.5 z m 0,-16.5 c 0,-4.66667 0.16667,-5 2.5,-5 2.33333,0 2.5,0.33333 2.5,5 0,4.66667 -0.16667,5 -2.5,5 -2.33333,0 -2.5,-0.33333 -2.5,-5 z m 25.35,19 c 0.52736,-2.63678 1.01716,-3 4.04554,-3 3.0153,0 3.52783,0.37462 4.10446,3 0.54868,2.49812 1.1475,3 3.57946,3 1.60629,0 2.92054,-0.25753 2.92054,-0.57229 0,-0.7796 -5.98807,-28.47525 -6.64478,-30.73301 -0.40484,-1.39184 -1.35294,-1.73538 -4.13968,-1.5 l -3.61459,0.3053 -3.27806,15 c -1.80294,8.25 -3.28815,15.5625 -3.30048,16.25 -0.0128,0.71534 1.2073,1.25 2.85259,1.25 2.39444,0 2.97529,-0.50145 3.475,-3 z m 2.37544,-12.75 c 1.38228,-8.64353 1.86839,-9.05899 2.92474,-2.49965 0.98613,6.12327 0.96067,6.24965 -1.25898,6.24965 -2.05781,0 -2.21049,-0.34372 -1.66576,-3.75 z m 34.70313,14.17857 c 0.89524,-0.89524 1.57143,-3.2619 1.57143,-5.5 0,-3.69841 -0.17576,-3.92857 -3,-3.92857 -2.53333,0 -3,0.38889 -3,2.5 0,2 -0.5,2.5 -2.5,2.5 h -2.5 V 486.5 476 h 2.5 c 2,0 2.5,0.5 2.5,2.5 0,2.11111 0.46667,2.5 3,2.5 2.82424,0 3,-0.23016 3,-3.92857 0,-5.37486 -1.97758,-7.07143 -8.24269,-7.07143 -8.21957,0 -8.75731,0.97832 -8.75731,15.93248 0,15.77571 0.64224,17.06752 8.48528,17.06752 3.55018,0 5.90476,-0.5329 6.94329,-1.57143 z M 162.72881,451.61222 c 0,-0.21328 -2.91279,-6.40078 -6.47286,-13.75 C 144.74293,414.09534 138.92397,395.73445 135.0659,371 c -2.65064,-16.99347 -2.44226,-48.93331 0.4371,-67 8.52719,-53.50423 36.9135,-103.11985 78.41013,-137.05085 34.47807,-28.19206 72.85429,-44.68904 116.31568,-50.00124 11.78267,-1.44017 38.37082,-1.45142 51.06655,-0.0216 65.70366,7.39963 124.49347,43.78136 161.71067,100.07371 21.46173,32.46164 34.41875,72.90154 36.36559,113.5 1.62999,33.99073 -7.00382,73.79698 -23.2407,107.1515 -3.52116,7.23332 -6.40211,13.42082 -6.40211,13.75 0,0.32917 4.71998,0.5985 10.48884,0.5985 h 10.48884 l 3.87898,-7.75 c 9.65141,-19.28299 17.83406,-45.72499 21.17297,-68.4198 2.75551,-18.72949 2.7667,-54.85499 0.0228,-73.50525 -5.06864,-34.45099 -17.23364,-66.17369 -36.71045,-95.72991 -11.2928,-17.13692 -17.53349,-24.83198 -31.31922,-38.61808 -19.41942,-19.41994 -36.34704,-31.90299 -60.02276,-44.26298 -24.03593,-12.54804 -48.32553,-20.47184 -76,-24.792879 -10.71257,-1.67264 -18.14572,-2.11296 -36,-2.13254 -19.89515,-0.0218 -24.34486,0.28726 -38.43541,2.66976 -40.17841,6.793549 -75.50376,21.866349 -107.55932,45.893969 -11.49395,8.61542 -36.09428,32.93093 -45.23601,44.71226 -25.21746,32.49881 -42.42497,72.78258 -48.45478,113.43543 -2.50963,16.91988 -2.47381,54.29223 0.0681,71 2.24962,14.78679 7.57004,35.79082 12.1915,48.12973 3.85612,10.29549 10.93623,26.07526 12.59786,28.0774 0.75119,0.90517 4.1849,1.29287 11.4505,1.29287 5.70766,0 10.37756,-0.1745 10.37756,-0.38778 z m 183.45,-0.41739 c -0.5225,-0.44284 -2.66827,-2.06421 -4.76837,-3.60304 -5.12733,-3.757 -9.30882,-9.73331 -11.35752,-16.23253 L 328.36357,426 h -42.15766 -42.15766 l -6.11887,-3.05764 c -7.26882,-3.63227 -14.24978,-10.96616 -16.84646,-17.69816 -1.6943,-4.39253 -1.85193,-9.58212 -2.12646,-70.00949 -0.21033,-46.297 0.0325,-66.49604 0.8357,-69.5 0.73745,-2.75827 2.62146,-5.66694 5.40369,-8.34262 3.39422,-3.26423 4.07369,-4.46137 3.30839,-5.8289 -0.52971,-0.94654 -0.80838,-5.95369 -0.61927,-11.127 0.34235,-9.36534 0.36012,-9.42231 4.10858,-13.17111 l 3.76475,-3.76508 26.73525,-0.5 26.73526,-0.5 3.64109,-2.91319 c 3.31606,-2.65312 3.55243,-3.16752 2.64789,-5.76229 -0.54626,-1.56701 -0.83475,-6.66123 -0.64109,-11.32049 0.34392,-8.27428 0.43974,-8.55902 4.11813,-12.23771 l 3.76603,-3.76632 49.73397,-0.26162 c 47.95356,-0.25225 49.84859,-0.19119 52.93543,1.70578 1.7608,1.08207 3.96618,3.44621 4.90084,5.25364 2.40416,4.64914 3.01468,15.38983 1.13103,19.89803 -1.49934,3.58842 -1.49839,3.59146 1.98907,6.37417 5.55335,4.43112 7.23008,9.34879 7.25565,21.28 l 0.022,10.25 h 11.85212 c 10.65731,0 12.19465,0.22883 15.25,2.26993 4.97132,3.32106 6.89448,7.89867 6.89633,16.41497 8.5e-4,3.9517 -0.43052,8.32132 -0.9586,9.71028 -0.83403,2.19367 -0.56835,2.80437 2.02264,4.64932 1.64053,1.16816 3.9851,3.99853 5.21015,6.28971 l 2.22736,4.16579 v 67 67 l -2.88543,6.24748 c -2.70026,5.84654 -7.51048,11.30528 -13.61457,15.45007 -2.36954,1.60896 -0.15121,1.70028 42.50945,1.75 l 45.00946,0.0525 1.4194,-2.25 c 12.74546,-20.2038 23.41833,-47.87981 28.16834,-73.04382 2.67559,-14.17442 3.72889,-47.88208 1.95146,-62.45091 -4.79832,-39.32991 -20.92059,-77.44247 -45.82058,-108.3185 -8.82359,-10.94127 -29.34607,-30.37043 -40.29241,-38.14585 -37.33952,-26.52308 -78.1871,-39.71549 -123.1439,-39.7714 -33.82741,-0.0421 -63.1878,6.71626 -93.32134,21.48118 -67.40219,33.02593 -111.24749,97.99439 -117.60599,174.26453 -3.35621,40.25762 7.01441,85.08654 27.99372,121.00809 l 4.22061,7.22668 h 84.65589 c 46.56074,0 84.22839,-0.36233 83.70589,-0.80517 z m 92.93398,-7.42467 c 2.36658,-0.70711 5.89426,-3.00546 8.2998,-5.40746 7.02966,-7.01932 7.31622,-9.05781 7.31622,-52.0442 V 349 h -58.53253 -58.53253 l 0.28253,40.33005 0.28253,40.33006 3.01544,4.87572 c 2.19467,3.54861 4.47131,5.63628 8.36419,7.66995 L 354.95719,445 h 40.01979 c 28.76803,0 41.17703,-0.34577 44.13581,-1.22984 z M 381.98544,415.25 c -1.08072,-0.9625 -4.33282,-4.32372 -7.22688,-7.46938 -4.35073,-4.72895 -5.15195,-6.1576 -4.62679,-8.25 0.48746,-1.9422 1.27638,-2.53062 3.39291,-2.53062 2.07744,0 4.41636,1.67139 9.48095,6.7751 6.63072,6.68192 7.96381,9.58427 5.52318,12.0249 -1.70176,1.70176 -4.25612,1.48706 -6.54337,-0.55 z m 6.45268,-17.07057 c -8.64012,-8.70131 -15.70931,-16.5395 -15.70931,-17.41821 0,-3.2275 1.25555,-4.76122 3.89768,-4.76122 2.13653,0 5.8866,3.22559 18.39301,15.82057 15.40673,15.51584 17.27358,18.21516 14.50931,20.97943 -2.88551,2.88551 -5.52376,1.05661 -21.09069,-14.62057 z m 11.93356,-12.03546 c -5.71961,-5.76377 -6.75088,-7.31708 -6.47318,-9.75 0.27431,-2.40331 0.84572,-2.94444 3.37021,-3.19166 2.61579,-0.25616 3.97605,0.672 9.75,6.65277 6.61067,6.84747 7.87238,9.58264 5.5101,11.94492 -2.49564,2.49564 -5.41636,1.13679 -12.15713,-5.65603 z m -72.88296,30.02558 c 0.99031,-0.62869 1.20429,-10.9499 1,-48.23469 L 328.22881,320.5 l -50.25,-0.25925 -50.25,-0.25925 v 37.85032 c 0,41.13143 0.30769,43.9496 5.54867,50.82088 1.49959,1.96606 5.01034,4.63023 7.8343,5.94514 l 5.11703,2.38262 40,-0.006 c 22,-0.003 40.56696,-0.36547 41.25991,-0.80537 z m -59.83506,-33.81229 c -3.78438,-3.65351 -7.15618,-7.51076 -7.4929,-8.57167 -0.68628,-2.16226 2.01937,-5.78559 4.32027,-5.78559 1.79964,0 14.99583,12.63081 15.7811,15.10497 0.82131,2.58774 -1.23527,5.89503 -3.66573,5.89503 -1.18524,0 -4.98782,-2.82459 -8.94274,-6.64274 z m 11.28563,-12.67578 c -8.91577,-8.97519 -16.21048,-17.06482 -16.21048,-17.97695 0,-2.60296 4.4459,-5.07144 6.83304,-3.79389 2.78591,1.49098 32.16696,32.32854 32.16696,33.76158 0,1.75397 -2.89089,4.32778 -4.86095,4.32778 -0.94495,0 -9.01281,-7.34334 -17.92857,-16.31852 z m 11.88257,-12.0878 c -6.24675,-6.28873 -7.26284,-7.78106 -6.7336,-9.8897 0.72409,-2.88503 3.06606,-4.08338 5.46299,-2.79533 2.39715,1.28816 15.17756,14.69602 15.17756,15.92269 0,1.61402 -2.97,4.16866 -4.84646,4.16866 -0.93698,0 -5.0142,-3.33284 -9.06049,-7.40632 z M 454.72881,333.5 V 327 h -58.5 -58.5 v 6.5 6.5 h 58.5 58.5 z m 0,-25.03212 c 0,-6.10662 -0.52611,-10.79128 -1.46401,-13.03599 C 450.57701,288.9991 450.58502,289 395.72881,289 c -52.25427,0 -54.42297,0.18478 -56.91951,4.8496 -0.59427,1.1104 -1.08049,6.9985 -1.08049,13.08466 V 318 h 58.5 58.5 z m -126,-3.46788 v -6 h -50.5 -50.5 v 6 6 h 50.5 50.5 z m 5.92448,-19.15977 c 3.84862,-3.84863 4.08182,-4.38339 3.11765,-7.14923 -1.69405,-4.85955 -1.22304,-14.69567 0.93094,-19.441 l 1.92915,-4.25 h -4.38469 c -4.03992,0 -4.40957,0.21623 -4.70111,2.75 l -0.31642,2.75 -48.83266,0.5 -48.83267,0.5 -2.91733,3.26578 c -2.84785,3.18798 -2.91734,3.52743 -2.91734,14.25 V 290 h 51.38235 51.38236 z m 109.24678,-7.49522 c 2.45178,-2.21883 2.63853,-14.39237 0.25731,-16.77358 C 442.77377,260.18782 437.01627,260 395.98612,260 c -54.0902,0 -50.25731,-0.7494 -50.25731,9.82625 0,11.00447 -4.06846,10.17375 49.82625,10.17375 41.88055,0 46.69852,-0.16493 48.34501,-1.65499 z M 380.29391,251 h 31.4349 v -10.59879 c 0,-10.56721 -0.009,-10.60744 -3.10576,-13.5 L 405.5173,224 h -33.81732 -33.81732 l 2.8288,2.8288 c 4.50488,4.50489 6.37757,14.94159 4.10367,22.87023 -0.88853,3.09813 -0.84545,3.15989 1.5651,2.2434 C 347.74356,251.42409 363.00471,251 380.29391,251 Z m -45.5651,-1 c 2.78335,-2.78335 2.83774,-12.74399 0.0881,-16.13922 L 332.90504,231.5 h -46.55266 c -53.98465,0 -50.1236,-0.76497 -50.1236,9.93073 0,4.85025 0.45205,6.8588 1.90499,8.46428 1.88445,2.0823 2.40448,2.10499 48.25,2.10499 45.01168,0 46.40255,-0.0575 48.34501,-2 z m 66.89585,-37.40499 c 2.88537,-2.61226 3.00332,-12.26315 0.19228,-15.73423 L 399.90507,194.5 h -46.55266 c -52.71468,0 -49.54376,-0.51485 -50.351,8.17533 -0.54464,5.86316 0.92801,10.06367 3.96286,11.30348 1.29835,0.53041 21.52641,0.83895 47.41039,0.72316 42.83579,-0.19164 45.25351,-0.29945 47.25,-2.10696 z"
     id="path4530"
     inkscape:connector-curvature="0" />
</svg>
